<svg xmlns="http://www.w3.org/2000/svg" width="120" height="120" fill="none"><path fill="#D4D4D4" d="M102.968 26.55c0 9.62-7.912 17.445-17.638 17.445-1.496 0-2.708 1.2-2.708 2.679 0 1.479 1.212 2.678 2.708 2.678 2.314 0 4.548-.342 6.657-.973a27.029 27.029 0 0 1 1.276 8.238c0 15.109-12.43 27.401-27.707 27.401-1.496 0-2.709 1.2-2.709 2.679 0 1.479 1.213 2.678 2.71 2.678.978 0 1.944-.05 2.902-.133-5.853 9.353-16.82 17.528-27.83 20.689L50.866 77.38h8.932c1.496 0 2.709-1.2 2.709-2.679 0-1.48-1.213-2.678-2.709-2.678H48.353c-5.825 0-11.05-3.391-13.374-8.657h29.227c1.496 0 2.708-1.2 2.708-2.68 0-1.478-1.212-2.678-2.708-2.678h-33.3c-5.825 0-11.051-3.39-13.375-8.656h40.146l.01.001H69.024c1.495 0 2.708-1.2 2.708-2.68 0-1.479-1.213-2.678-2.708-2.678h-7.657l7.118-22.632a17.5 17.5 0 0 1 1.628-3.643c7.321 2.892 12.51 9.971 12.51 18.231 0 1.48 1.212 2.679 2.708 2.679 1.496 0 2.709-1.2 2.709-2.679 0-8.25 5.175-15.322 12.482-18.22a17.165 17.165 0 0 1 2.447 8.82Z"/><path fill="#D4D4D4" d="M85.33 9.107c4.442 0 8.494 1.645 11.598 4.334A25.297 25.297 0 0 0 85.33 24.718 25.297 25.297 0 0 0 73.689 13.42c3.134-2.72 7.224-4.314 11.641-4.314Z"/><path fill="#44403C" fill-rule="evenodd" d="M110.594 13.645c0-1.48-1.213-2.679-2.709-2.679-1.799 0-3.554.19-5.247.546A23.113 23.113 0 0 0 85.33 3.75c-6.836 0-13.07 2.925-17.34 7.754a25.54 25.54 0 0 0-5.215-.538c-1.496 0-2.709 1.2-2.709 2.679 0 1.48 1.213 2.678 2.709 2.678.639 0 1.27.033 1.894.092a22.984 22.984 0 0 0-1.357 3.356l-7.619 24.224H13.458c-.906 0-1.752.448-2.254 1.195a2.653 2.653 0 0 0-.244 2.518l1.487 3.512c2.886 6.813 9.286 11.39 16.618 12.053l.83 1.96c2.72 6.425 8.567 10.867 15.373 11.91L34.06 112.774c-.008.025-.008.051-.015.076a2.616 2.616 0 0 0-.059.285c-.014.082-.03.164-.035.246-.006.082-.002.166 0 .25.002.097.004.194.017.289.004.026 0 .051.005.077.01.064.033.122.047.184.018.074.033.148.057.22.032.097.074.188.116.279.027.058.05.117.08.172.055.099.12.19.185.28.032.044.059.09.093.132a2.677 2.677 0 0 0 .407.393c.111.088.227.169.35.239.05.027.105.048.157.073.103.05.208.097.317.133.021.007.039.019.06.025.067.021.135.031.203.047.052.011.102.026.155.035.15.025.3.04.447.04.15 0 .298-.013.443-.037 15.625-2.502 31.805-14.547 38.235-28.294 13.51-4.132 23.354-16.6 23.354-31.302 0-3.572-.582-7.056-1.713-10.395 6.824-3.963 11.418-11.295 11.418-19.671 0-3.64-.871-7.08-2.41-10.135a20.19 20.19 0 0 1 1.91-.093c1.496 0 2.709-1.199 2.709-2.678Zm-13.666-.204A17.658 17.658 0 0 0 85.33 9.107c-4.417 0-8.507 1.595-11.641 4.314A25.297 25.297 0 0 1 85.33 24.718 25.297 25.297 0 0 1 96.928 13.44ZM85.33 43.995c9.726 0 17.638-7.825 17.638-17.444 0-3.22-.902-6.229-2.447-8.82-7.307 2.898-12.483 9.97-12.483 18.22 0 1.48-1.212 2.679-2.708 2.679-1.496 0-2.708-1.2-2.708-2.679 0-8.26-5.189-15.34-12.51-18.231a17.5 17.5 0 0 0-1.628 3.643l-7.118 22.632h7.657c1.495 0 2.708 1.2 2.708 2.679 0 1.479-1.213 2.678-2.708 2.678H57.698l-.01.001H17.53c2.324 5.265 7.55 8.655 13.375 8.655h33.3c1.496 0 2.708 1.2 2.708 2.679 0 1.48-1.212 2.679-2.708 2.679H34.979c2.324 5.266 7.55 8.656 13.374 8.656h11.445c1.496 0 2.709 1.2 2.709 2.679 0 1.48-1.213 2.679-2.709 2.679h-8.932L40.629 109.93c11.01-3.161 21.977-11.336 27.83-20.69-.958.083-1.924.134-2.903.134-1.496 0-2.709-1.2-2.709-2.678 0-1.48 1.213-2.679 2.71-2.679 15.276 0 27.706-12.292 27.706-27.401 0-2.826-.431-5.586-1.276-8.238-2.11.63-4.343.973-6.657.973-1.496 0-2.708-1.199-2.708-2.678 0-1.48 1.212-2.679 2.708-2.679Z" clip-rule="evenodd"/></svg>